<?xml version="1.0" encoding="UTF-8" standalone="no"?>
<svg
   xmlns:dc="http://purl.org/dc/elements/1.1/"
   xmlns:cc="http://creativecommons.org/ns#"
   xmlns:rdf="http://www.w3.org/1999/02/22-rdf-syntax-ns#"
   xmlns:svg="http://www.w3.org/2000/svg"
   xmlns="http://www.w3.org/2000/svg"
   xmlns:sodipodi="http://sodipodi.sourceforge.net/DTD/sodipodi-0.dtd"
   xmlns:inkscape="http://www.inkscape.org/namespaces/inkscape"
   viewBox="0 0 1419.6355 329.33066"
   version="1.1"
   xml:space="preserve"
   id="svg850"
   sodipodi:docname="promlens_logo.svg"
   width="1419.6355"
   height="329.33066"
   inkscape:version="0.92.3 (2405546, 2018-03-11)"><metadata
   id="metadata856"><rdf:RDF><cc:Work
       rdf:about=""><dc:format>image/svg+xml</dc:format><dc:type
         rdf:resource="http://purl.org/dc/dcmitype/StillImage" /><dc:title></dc:title></cc:Work></rdf:RDF></metadata><defs
   id="defs854" /><sodipodi:namedview
   pagecolor="#ffffff"
   bordercolor="#666666"
   borderopacity="1"
   objecttolerance="10"
   gridtolerance="10"
   guidetolerance="10"
   inkscape:pageopacity="0"
   inkscape:pageshadow="2"
   inkscape:window-width="3840"
   inkscape:window-height="2107"
   id="namedview852"
   showgrid="false"
   inkscape:zoom="0.59"
   inkscape:cx="747.52908"
   inkscape:cy="-779.56328"
   inkscape:window-x="0"
   inkscape:window-y="53"
   inkscape:window-maximized="0"
   inkscape:current-layer="svg850" />
  <clipPath
   id="clipCircle">
    <circle
   id="circle"
   cx="100"
   cy="100"
   r="100" />
  </clipPath>

  <g
   clip-path="url(#clipCircle)"
   id="g848"
   transform="matrix(1.6466533,0,0,1.6466533,-1.6466533,0)">
    <circle
   id="circle838"
   cx="100"
   cy="100"
   r="99"
   style="fill:#e6522c" />
    <path
   transform="rotate(45,100,100)"
   d="M -10,85 Q 70,45 146.9,65"
   id="path840"
   inkscape:connector-curvature="0"
   style="fill:#ffffff;fill-opacity:0;stroke:#ffffff;stroke-width:25" />
    <path
   transform="rotate(135,100,100)"
   d="M -10,85 Q 70,45 146.9,65"
   id="path842"
   inkscape:connector-curvature="0"
   style="fill:#ffffff;fill-opacity:0;stroke:#ffffff;stroke-width:25" />
    <path
   transform="rotate(-135,100,100)"
   d="M -10,85 Q 70,45 146.9,65"
   id="path844"
   inkscape:connector-curvature="0"
   style="fill:#ffffff;fill-opacity:0;stroke:#ffffff;stroke-width:25" />
    <path
   transform="rotate(-45,100,100)"
   d="M 55.4,62.2 Q 100,53 146.9,65"
   id="path846"
   inkscape:connector-curvature="0"
   style="fill:#ffffff;fill-opacity:0;stroke:#ffffff;stroke-width:25" />
  </g>
<g
   aria-label="PromLens"
   style="font-style:normal;font-variant:normal;font-weight:normal;font-stretch:normal;font-size:58.6194725px;line-height:125%;font-family:Lato;-inkscape-font-specification:Lato;letter-spacing:0px;word-spacing:0px;fill:#000000;fill-opacity:1;stroke:none;stroke-width:2.09355235px;stroke-linecap:butt;stroke-linejoin:miter;stroke-opacity:1"
   id="text1724"
   transform="matrix(3.7795276,0,0,3.7795276,106.20415,225.00977)"><path
     d="m 105.76679,-15.423904 q 2.43271,0 4.27922,-0.644814 1.87582,-0.644814 3.13614,-1.787894 1.28963,-1.172389 1.93444,-2.784425 0.64482,-1.612035 0.64482,-3.546478 0,-4.015434 -2.49133,-6.272283 -2.46202,-2.25685 -7.50329,-2.25685 h -6.74124 v 17.292744 z m 0,-21.777134 q 3.98612,0 6.9171,0.937912 2.96028,0.908602 4.89472,2.608566 1.93445,1.699965 2.87236,4.103363 0.96722,2.403399 0.96722,5.363682 0,2.930974 -1.02584,5.363682 -1.02584,2.432708 -3.01891,4.191292 -1.96375,1.758584 -4.89472,2.755115 -2.90167,0.967222 -6.71193,0.967222 H 99.02555 V 4.7998142 H 93.368771 V -37.201038 Z"
     style="letter-spacing:1.32291663px;stroke-width:2.09355235px"
     id="path1726"
     inkscape:connector-curvature="0" /><path
     d="m 132.99035,-18.941072 q 1.40687,-3.048213 3.45855,-4.748177 2.05168,-1.729275 5.01197,-1.729275 0.93791,0 1.78789,0.205168 0.87929,0.205168 1.55342,0.644814 l -0.38103,3.898195 q -0.17586,0.732744 -0.87929,0.732744 -0.41034,0 -1.2017,-0.175859 -0.79136,-0.175858 -1.78789,-0.175858 -1.40687,0 -2.52064,0.410336 -1.08446,0.410337 -1.96375,1.231009 -0.84999,0.791363 -1.55342,1.993062 -0.67412,1.17239 -1.23101,2.696496 V 4.7998142 h -5.24644 V -24.890949 h 2.98959 q 0.84998,0 1.17239,0.322407 0.32241,0.322408 0.43965,1.11377 z"
     style="letter-spacing:1.32291663px;stroke-width:2.09355235px"
     id="path1728"
     inkscape:connector-curvature="0" /><path
     d="m 162.02562,-25.359904 q 3.25338,0 5.86195,1.08446 2.60857,1.08446 4.45508,3.077522 1.84651,1.993062 2.81374,4.836107 0.99653,2.813734 0.99653,6.301593 0,3.5171683 -0.99653,6.330903 -0.96723,2.81373466 -2.81374,4.8067967 -1.84651,1.9930621 -4.45508,3.0775223 -2.60857,1.0551505 -5.86195,1.0551505 -3.28269,0 -5.92056,-1.0551505 -2.60857,-1.0844602 -4.45508,-3.0775223 -1.84652,-1.99306204 -2.84305,-4.8067967 -0.96722,-2.8137347 -0.96722,-6.330903 0,-3.487859 0.96722,-6.301593 0.99653,-2.843045 2.84305,-4.836107 1.84651,-1.993062 4.45508,-3.077522 2.63787,-1.08446 5.92056,-1.08446 z m 0,26.4960012 q 4.39646,0 6.56538,-2.9309736 2.16892,-2.9602834 2.16892,-8.2360356 0,-5.305063 -2.16892,-8.265346 -2.16892,-2.960283 -6.56538,-2.960283 -2.22754,0 -3.89819,0.762053 -1.64135,0.762053 -2.75512,2.19823 -1.08446,1.436177 -1.64134,3.546478 -0.52758,2.080991 -0.52758,4.718868 0,5.2757522 2.16892,8.2360356 2.19823,2.9309736 6.65331,2.9309736 z"
     style="letter-spacing:1.32291663px;stroke-width:2.09355235px"
     id="path1730"
     inkscape:connector-curvature="0" /><path
     d="M 184.03572,4.7998142 V -24.890949 h 3.13614 q 1.11377,0 1.37756,1.084461 l 0.38102,3.048212 q 1.64135,-2.022372 3.69303,-3.312 2.05168,-1.289628 4.74818,-1.289628 2.98959,0 4.8361,1.670655 1.87583,1.670655 2.6965,4.513699 0.64481,-1.612036 1.64135,-2.784425 1.02584,-1.172389 2.28616,-1.934443 1.26031,-0.762053 2.66718,-1.11377 1.43618,-0.351716 2.90167,-0.351716 2.34477,0 4.16198,0.762053 1.84651,0.732743 3.10683,2.16892 1.28963,1.436177 1.96375,3.546478 0.67413,2.080992 0.67413,4.777487 V 4.7998142 h -5.24645 V -14.104966 q 0,-3.487858 -1.5241,-5.275752 -1.52411,-1.817204 -4.39646,-1.817204 -1.28963,0 -2.46202,0.468956 -1.14308,0.439646 -2.02237,1.318938 -0.8793,0.879292 -1.40687,2.22754 -0.49827,1.318938 -0.49827,3.077522 V 4.7998142 h -5.24644 V -14.104966 q 0,-3.575787 -1.43618,-5.334372 -1.43617,-1.758584 -4.19129,-1.758584 -1.93444,0 -3.57579,1.055151 -1.64134,1.02584 -3.0189,2.813734 V 4.7998142 Z"
     style="letter-spacing:1.32291663px;stroke-width:2.09355235px"
     id="path1732"
     inkscape:connector-curvature="0" /><path
     d="M 258.04678,0.02232722 V 4.7998142 H 234.21797 V -37.201038 h 5.65678 V 0.02232722 Z"
     style="letter-spacing:1.32291663px;stroke-width:2.09355235px"
     id="path1734"
     inkscape:connector-curvature="0" /><path
     d="m 282.11772,-13.284293 q 0,-1.817204 -0.52758,-3.312 -0.49826,-1.524107 -1.49479,-2.608567 -0.96722,-1.11377 -2.37409,-1.699964 -1.40687,-0.615505 -3.19476,-0.615505 -3.75165,0 -5.94988,2.19823 -2.16892,2.168921 -2.6965,6.037806 z m 4.2206,13.92212468 q -0.96722,1.17238942 -2.31547,2.05168152 -1.34825,0.8499824 -2.90166,1.4068674 -1.52411,0.5568849 -3.16545,0.8206726 -1.64135,0.2930973 -3.25338,0.2930973 -3.07753,0 -5.68609,-1.0258407 -2.57926,-1.0551505 -4.48439,-3.0482126 -1.87583,-2.02237181 -2.93098,-4.9826552 -1.05515,-2.9602833 -1.05515,-6.799859 0,-3.106832 0.93791,-5.803328 0.96723,-2.696495 2.75512,-4.660248 1.78789,-1.993062 4.36715,-3.106832 2.57926,-1.143079 5.80333,-1.143079 2.66718,0 4.92403,0.908601 2.28616,0.879293 3.92751,2.579257 1.67065,1.670655 2.60856,4.161983 0.93792,2.462018 0.93792,5.627469 0,1.231009 -0.26379,1.641345 -0.26379,0.410337 -0.99653,0.410337 h -19.84269 q 0.0879,2.8137344 0.76205,4.8947256 0.70343,2.0809913 1.93444,3.4878586 1.23101,1.37755765 2.93098,2.08099132 1.69996,0.67412398 3.81026,0.67412398 1.96375,0 3.37062,-0.43964609 1.43618,-0.46895578 2.46202,-0.99653103 1.02584,-0.52757525 1.69996,-0.96722128 0.70344,-0.4689558 1.2017,-0.4689558 0.64482,0 0.99653,0.4982655 z"
     style="letter-spacing:1.32291663px;stroke-width:2.09355235px"
     id="path1736"
     inkscape:connector-curvature="0" /><path
     d="m 299.40529,-20.582417 q 0.96722,-1.084461 2.05168,-1.963753 1.08446,-0.879292 2.28616,-1.494796 1.23101,-0.644814 2.57926,-0.967222 1.37755,-0.351716 2.96028,-0.351716 2.43271,0 4.27922,0.820672 1.87582,0.791363 3.10683,2.28616 1.26032,1.465486 1.90514,3.546478 0.64481,2.080991 0.64481,4.601628 V 4.7998142 h -5.24644 V -14.104966 q 0,-3.370619 -1.55342,-5.217133 -1.52411,-1.875823 -4.66025,-1.875823 -2.31547,0 -4.33784,1.11377 -1.99306,1.11377 -3.69302,3.018903 V 4.7998142 h -5.24645 V -24.890949 h 3.13614 q 1.11377,0 1.37756,1.084461 z"
     style="letter-spacing:1.32291663px;stroke-width:2.09355235px"
     id="path1738"
     inkscape:connector-curvature="0" /><path
     d="m 345.84138,-19.996223 q -0.35172,0.644815 -1.08446,0.644815 -0.43965,0 -0.99653,-0.322408 -0.55689,-0.322407 -1.37756,-0.703433 -0.79136,-0.410337 -1.90513,-0.732744 -1.11377,-0.351716 -2.63788,-0.351716 -1.31894,0 -2.37409,0.351716 -1.05515,0.322407 -1.8172,0.908602 -0.73274,0.586195 -1.14308,1.377558 -0.38103,0.762053 -0.38103,1.670655 0,1.143079 0.64482,1.905133 0.67412,0.762053 1.75858,1.318938 1.08446,0.556885 2.46202,0.996531 1.37756,0.410336 2.81373,0.908602 1.46549,0.468955 2.84305,1.05515 1.37756,0.586195 2.46202,1.4654869 1.08446,0.8792921 1.72927,2.1689205 0.67412,1.2603187 0.67412,3.0482126 0,2.0516815 -0.73274,3.8102657 -0.73274,1.7292744 -2.16892,3.0189028 -1.43618,1.2603187 -3.51717,1.9930621 -2.08099,0.7327434 -4.80679,0.7327434 -3.10684,0 -5.62747,-0.996531 -2.52064,-1.0258408 -4.27923,-2.6085666 l 1.23101,-1.99306202 q 0.23448,-0.38102657 0.55689,-0.58619472 0.32241,-0.20516816 0.82067,-0.20516816 0.52758,0 1.11377,0.41033631 0.5862,0.41033631 1.40687,0.90860182 0.84998,0.49826552 2.05168,0.90860187 1.2017,0.4103363 2.98959,0.4103363 1.52411,0 2.66719,-0.3810266 1.14308,-0.41033631 1.90513,-1.08446025 0.76206,-0.67412393 1.11377,-1.55341605 0.38103,-0.8792921 0.38103,-1.8758231 0,-1.2310089 -0.67413,-2.0223718 -0.64481,-0.8206726 -1.72927,-1.3775576 -1.08446,-0.5861947 -2.49133,-0.996531 -1.37756,-0.4396461 -2.84304,-0.9086019 -1.43618,-0.4689557 -2.84305,-1.0551505 -1.37755,-0.615504 -2.46201,-1.524106 -1.08446,-0.908602 -1.75859,-2.22754 -0.64481,-1.348248 -0.64481,-3.253381 0,-1.699965 0.70343,-3.253381 0.70343,-1.582725 2.05168,-2.755115 1.34825,-1.201699 3.312,-1.905133 1.96376,-0.703433 4.48439,-0.703433 2.93098,0 5.24645,0.937911 2.34477,0.908602 4.04474,2.520637 z"
     style="letter-spacing:1.32291663px;stroke-width:2.09355235px"
     id="path1740"
     inkscape:connector-curvature="0" /></g></svg>